<mxfile host="app.diagrams.net" agent="Mozilla/5.0 (Windows NT 10.0; Win64; x64; rv:129.0) Gecko/20100101 Firefox/129.0" version="24.7.7">
  <diagram id="C5RBs43oDa-KdzZeNtuy" name="Page-1">
    <mxGraphModel dx="1434" dy="782" grid="1" gridSize="10" guides="1" tooltips="1" connect="1" arrows="1" fold="1" page="1" pageScale="1" pageWidth="827" pageHeight="1169" math="0" shadow="0">
      <root>
        <mxCell id="WIyWlLk6GJQsqaUBKTNV-0" />
        <mxCell id="WIyWlLk6GJQsqaUBKTNV-1" parent="WIyWlLk6GJQsqaUBKTNV-0" />
        <mxCell id="BynljoCyhWLfZQMRt0PT-2" style="edgeStyle=orthogonalEdgeStyle;rounded=0;orthogonalLoop=1;jettySize=auto;html=1;exitX=0.5;exitY=1;exitDx=0;exitDy=0;" edge="1" parent="WIyWlLk6GJQsqaUBKTNV-1" source="BynljoCyhWLfZQMRt0PT-0" target="BynljoCyhWLfZQMRt0PT-3">
          <mxGeometry relative="1" as="geometry">
            <mxPoint x="420" y="160" as="targetPoint" />
          </mxGeometry>
        </mxCell>
        <mxCell id="BynljoCyhWLfZQMRt0PT-0" value="Start" style="ellipse;whiteSpace=wrap;html=1;" vertex="1" parent="WIyWlLk6GJQsqaUBKTNV-1">
          <mxGeometry x="354" y="40" width="120" height="80" as="geometry" />
        </mxCell>
        <mxCell id="BynljoCyhWLfZQMRt0PT-6" style="edgeStyle=orthogonalEdgeStyle;rounded=0;orthogonalLoop=1;jettySize=auto;html=1;exitX=0.5;exitY=1;exitDx=0;exitDy=0;" edge="1" parent="WIyWlLk6GJQsqaUBKTNV-1" source="BynljoCyhWLfZQMRt0PT-3" target="BynljoCyhWLfZQMRt0PT-7">
          <mxGeometry relative="1" as="geometry">
            <mxPoint x="414" y="310" as="targetPoint" />
          </mxGeometry>
        </mxCell>
        <mxCell id="BynljoCyhWLfZQMRt0PT-3" value="Sum = 0" style="rounded=0;whiteSpace=wrap;html=1;" vertex="1" parent="WIyWlLk6GJQsqaUBKTNV-1">
          <mxGeometry x="354" y="170" width="120" height="60" as="geometry" />
        </mxCell>
        <mxCell id="BynljoCyhWLfZQMRt0PT-8" style="edgeStyle=orthogonalEdgeStyle;rounded=0;orthogonalLoop=1;jettySize=auto;html=1;exitX=0.5;exitY=1;exitDx=0;exitDy=0;" edge="1" parent="WIyWlLk6GJQsqaUBKTNV-1" source="BynljoCyhWLfZQMRt0PT-7" target="BynljoCyhWLfZQMRt0PT-11">
          <mxGeometry relative="1" as="geometry">
            <mxPoint x="414" y="380" as="targetPoint" />
          </mxGeometry>
        </mxCell>
        <mxCell id="BynljoCyhWLfZQMRt0PT-7" value="Get the value" style="shape=parallelogram;perimeter=parallelogramPerimeter;whiteSpace=wrap;html=1;fixedSize=1;" vertex="1" parent="WIyWlLk6GJQsqaUBKTNV-1">
          <mxGeometry x="354" y="280" width="120" height="60" as="geometry" />
        </mxCell>
        <mxCell id="BynljoCyhWLfZQMRt0PT-12" style="edgeStyle=orthogonalEdgeStyle;rounded=0;orthogonalLoop=1;jettySize=auto;html=1;exitX=0.5;exitY=1;exitDx=0;exitDy=0;" edge="1" parent="WIyWlLk6GJQsqaUBKTNV-1" source="BynljoCyhWLfZQMRt0PT-11" target="BynljoCyhWLfZQMRt0PT-13">
          <mxGeometry relative="1" as="geometry">
            <mxPoint x="414" y="600" as="targetPoint" />
          </mxGeometry>
        </mxCell>
        <mxCell id="BynljoCyhWLfZQMRt0PT-16" value="No" style="edgeLabel;html=1;align=center;verticalAlign=middle;resizable=0;points=[];" vertex="1" connectable="0" parent="BynljoCyhWLfZQMRt0PT-12">
          <mxGeometry x="-0.2" y="-1" relative="1" as="geometry">
            <mxPoint as="offset" />
          </mxGeometry>
        </mxCell>
        <mxCell id="BynljoCyhWLfZQMRt0PT-14" style="edgeStyle=orthogonalEdgeStyle;rounded=0;orthogonalLoop=1;jettySize=auto;html=1;exitX=0;exitY=0.5;exitDx=0;exitDy=0;entryX=0;entryY=0.5;entryDx=0;entryDy=0;" edge="1" parent="WIyWlLk6GJQsqaUBKTNV-1" source="BynljoCyhWLfZQMRt0PT-11" target="BynljoCyhWLfZQMRt0PT-22">
          <mxGeometry relative="1" as="geometry">
            <mxPoint x="310" y="630" as="targetPoint" />
            <Array as="points">
              <mxPoint x="310" y="460" />
              <mxPoint x="310" y="840" />
            </Array>
          </mxGeometry>
        </mxCell>
        <mxCell id="BynljoCyhWLfZQMRt0PT-15" value="Yes" style="edgeLabel;html=1;align=center;verticalAlign=middle;resizable=0;points=[];" vertex="1" connectable="0" parent="BynljoCyhWLfZQMRt0PT-14">
          <mxGeometry x="-0.087" y="-2" relative="1" as="geometry">
            <mxPoint as="offset" />
          </mxGeometry>
        </mxCell>
        <mxCell id="BynljoCyhWLfZQMRt0PT-11" value="Is the value = -1?" style="rhombus;whiteSpace=wrap;html=1;" vertex="1" parent="WIyWlLk6GJQsqaUBKTNV-1">
          <mxGeometry x="356" y="410" width="116" height="100" as="geometry" />
        </mxCell>
        <mxCell id="BynljoCyhWLfZQMRt0PT-17" style="edgeStyle=orthogonalEdgeStyle;rounded=0;orthogonalLoop=1;jettySize=auto;html=1;exitX=0.5;exitY=1;exitDx=0;exitDy=0;" edge="1" parent="WIyWlLk6GJQsqaUBKTNV-1" source="BynljoCyhWLfZQMRt0PT-13" target="BynljoCyhWLfZQMRt0PT-18">
          <mxGeometry relative="1" as="geometry">
            <mxPoint x="414" y="690" as="targetPoint" />
          </mxGeometry>
        </mxCell>
        <mxCell id="BynljoCyhWLfZQMRt0PT-13" value="&lt;em&gt;Add to sum (sum = sum + value)&lt;/em&gt;" style="rounded=0;whiteSpace=wrap;html=1;" vertex="1" parent="WIyWlLk6GJQsqaUBKTNV-1">
          <mxGeometry x="354" y="570" width="120" height="60" as="geometry" />
        </mxCell>
        <mxCell id="BynljoCyhWLfZQMRt0PT-19" style="edgeStyle=orthogonalEdgeStyle;rounded=0;orthogonalLoop=1;jettySize=auto;html=1;exitX=1;exitY=0.5;exitDx=0;exitDy=0;entryX=1;entryY=0.5;entryDx=0;entryDy=0;" edge="1" parent="WIyWlLk6GJQsqaUBKTNV-1" source="BynljoCyhWLfZQMRt0PT-18" target="BynljoCyhWLfZQMRt0PT-7">
          <mxGeometry relative="1" as="geometry">
            <Array as="points">
              <mxPoint x="510" y="720" />
              <mxPoint x="510" y="310" />
            </Array>
          </mxGeometry>
        </mxCell>
        <mxCell id="BynljoCyhWLfZQMRt0PT-20" value="Yes" style="edgeLabel;html=1;align=center;verticalAlign=middle;resizable=0;points=[];" vertex="1" connectable="0" parent="BynljoCyhWLfZQMRt0PT-19">
          <mxGeometry x="-0.018" relative="1" as="geometry">
            <mxPoint as="offset" />
          </mxGeometry>
        </mxCell>
        <mxCell id="BynljoCyhWLfZQMRt0PT-21" style="edgeStyle=orthogonalEdgeStyle;rounded=0;orthogonalLoop=1;jettySize=auto;html=1;exitX=0.5;exitY=1;exitDx=0;exitDy=0;" edge="1" parent="WIyWlLk6GJQsqaUBKTNV-1" source="BynljoCyhWLfZQMRt0PT-18" target="BynljoCyhWLfZQMRt0PT-22">
          <mxGeometry relative="1" as="geometry">
            <mxPoint x="414" y="830" as="targetPoint" />
          </mxGeometry>
        </mxCell>
        <mxCell id="BynljoCyhWLfZQMRt0PT-18" value="Add more values?" style="rhombus;whiteSpace=wrap;html=1;" vertex="1" parent="WIyWlLk6GJQsqaUBKTNV-1">
          <mxGeometry x="361" y="670" width="106" height="100" as="geometry" />
        </mxCell>
        <mxCell id="BynljoCyhWLfZQMRt0PT-24" style="edgeStyle=orthogonalEdgeStyle;rounded=0;orthogonalLoop=1;jettySize=auto;html=1;exitX=0.5;exitY=1;exitDx=0;exitDy=0;" edge="1" parent="WIyWlLk6GJQsqaUBKTNV-1" source="BynljoCyhWLfZQMRt0PT-22" target="BynljoCyhWLfZQMRt0PT-25">
          <mxGeometry relative="1" as="geometry">
            <mxPoint x="414" y="920" as="targetPoint" />
          </mxGeometry>
        </mxCell>
        <mxCell id="BynljoCyhWLfZQMRt0PT-22" value="Output the sum" style="shape=parallelogram;perimeter=parallelogramPerimeter;whiteSpace=wrap;html=1;fixedSize=1;" vertex="1" parent="WIyWlLk6GJQsqaUBKTNV-1">
          <mxGeometry x="354" y="810" width="120" height="60" as="geometry" />
        </mxCell>
        <mxCell id="BynljoCyhWLfZQMRt0PT-25" value="End" style="ellipse;whiteSpace=wrap;html=1;" vertex="1" parent="WIyWlLk6GJQsqaUBKTNV-1">
          <mxGeometry x="354" y="910" width="120" height="80" as="geometry" />
        </mxCell>
      </root>
    </mxGraphModel>
  </diagram>
</mxfile>
